{
  "accessors": [
    {
      "bufferView": 2,
      "componentType": 5126,
      "count": 65532,
      "max": [
        10.02202033996582,
        52.06944274902344,
        9.63930892944336
      ],
      "min": [
        -10.250314712524414,
        0.014583587646484375,
        -9.631465911865234
      ],
      "type": "VEC3"
    },
    {
      "bufferView": 2,
      "byteOffset": 786384,
      "componentType": 5126,
      "count": 65532,
      "max": [
        0.9999997019767761,
        0.9999997019767761,
        0.999998927116394
      ],
      "min": [
        -0.9999926090240479,
        -1.0,
        -0.9999963641166687
      ],
      "type": "VEC3"
    },
    {
      "bufferView": 3,
      "componentType": 5126,
      "count": 65532,
      "max": [
        0.9999996423721313,
        0.9999995231628418,
        0.9999993443489075,
        1.0
      ],
      "min": [
        -0.9996284246444702,
        -0.9999745488166809,
        -0.9993829727172852,
        -1.0
      ],
      "type": "VEC4"
    },
    {
      "bufferView": 3,
      "byteOffset": 1048512,
      "componentType": 5126,
      "count": 65532,
      "max": [
        1.0,
        1.0,
        1.0,
        1.0
      ],
      "min": [
        0.0,
        0.0,
        0.0,
        1.0
      ],
      "type": "VEC4"
    },
    {
      "bufferView": 1,
      "componentType": 5126,
      "count": 65532,
      "max": [
        0.9451582431793213,
        0.9069370031356812
      ],
      "min": [
        0.003385996213182807,
        0.009838664904236794
      ],
      "type": "VEC2"
    },
    {
      "bufferView": 0,
      "componentType": 5125,
      "count": 309036,
      "type": "SCALAR"
    },
    {
      "bufferView": 2,
      "byteOffset": 1572768,
      "componentType": 5126,
      "count": 65532,
      "max": [
        6.908296585083008,
        52.09705352783203,
        9.616092681884766
      ],
      "min": [
        -9.760229110717773,
        0.014683246612548828,
        -7.483932971954346
      ],
      "type": "VEC3"
    },
    {
      "bufferView": 2,
      "byteOffset": 2359152,
      "componentType": 5126,
      "count": 65532,
      "max": [
        0.9999764561653137,
        0.9999125599861145,
        0.9999975562095642
      ],
      "min": [
        -0.9999990463256836,
        -1.0,
        -0.9999503493309021
      ],
      "type": "VEC3"
    },
    {
      "bufferView": 3,
      "byteOffset": 2097024,
      "componentType": 5126,
      "count": 65532,
      "max": [
        0.9999774694442749,
        0.9999987483024597,
        1.0,
        1.0
      ],
      "min": [
        -0.9995238780975342,
        -0.9999074339866638,
        -0.9999574422836304,
        1.0
      ],
      "type": "VEC4"
    },
    {
      "bufferView": 3,
      "byteOffset": 3145536,
      "componentType": 5126,
      "count": 65532,
      "max": [
        1.0,
        1.0,
        1.0,
        1.0
      ],
      "min": [
        0.0,
        0.0,
        0.0,
        1.0
      ],
      "type": "VEC4"
    },
    {
      "bufferView": 1,
      "byteOffset": 524256,
      "componentType": 5126,
      "count": 65532,
      "max": [
        0.9884728193283081,
        0.9811534881591797
      ],
      "min": [
        0.001953125,
        0.0024349866434931755
      ],
      "type": "VEC2"
    },
    {
      "bufferView": 0,
      "byteOffset": 1236144,
      "componentType": 5125,
      "count": 331200,
      "type": "SCALAR"
    },
    {
      "bufferView": 2,
      "byteOffset": 3145536,
      "componentType": 5126,
      "count": 65532,
      "max": [
        7.270845413208008,
        52.109222412109375,
        6.469521999359131
      ],
      "min": [
        -10.293856620788574,
        21.928138732910156,
        -5.205785274505615
      ],
      "type": "VEC3"
    },
    {
      "bufferView": 2,
      "byteOffset": 3931920,
      "componentType": 5126,
      "count": 65532,
      "max": [
        0.9999997019767761,
        0.999774158000946,
        0.9999857544898987
      ],
      "min": [
        -0.9999990463256836,
        -0.9993122816085815,
        -0.9999855756759644
      ],
      "type": "VEC3"
    },
    {
      "bufferView": 3,
      "byteOffset": 4194048,
      "componentType": 5126,
      "count": 65532,
      "max": [
        0.9995790123939514,
        0.9999998807907104,
        0.9981805086135864,
        1.0
      ],
      "min": [
        -0.9989394545555115,
        -0.9999992847442627,
        -0.9999178647994995,
        -1.0
      ],
      "type": "VEC4"
    },
    {
      "bufferView": 3,
      "byteOffset": 5242560,
      "componentType": 5126,
      "count": 65532,
      "max": [
        1.0,
        1.0,
        1.0,
        1.0
      ],
      "min": [
        0.0,
        0.0,
        0.0,
        1.0
      ],
      "type": "VEC4"
    },
    {
      "bufferView": 1,
      "byteOffset": 1048512,
      "componentType": 5126,
      "count": 65532,
      "max": [
        0.8129209876060486,
        0.8325880169868469
      ],
      "min": [
        0.18065115809440613,
        0.23234477639198303
      ],
      "type": "VEC2"
    },
    {
      "bufferView": 0,
      "byteOffset": 2560944,
      "componentType": 5125,
      "count": 341130,
      "type": "SCALAR"
    },
    {
      "bufferView": 2,
      "byteOffset": 4718304,
      "componentType": 5126,
      "count": 65532,
      "max": [
        10.293856620788574,
        51.86954879760742,
        9.628047943115234
      ],
      "min": [
        -9.667354583740234,
        0.014602184295654297,
        -9.643863677978516
      ],
      "type": "VEC3"
    },
    {
      "bufferView": 2,
      "byteOffset": 5504688,
      "componentType": 5126,
      "count": 65532,
      "max": [
        0.999995231628418,
        0.9999998807907104,
        0.9999579787254333
      ],
      "min": [
        -1.0,
        -1.0,
        -0.9999995827674866
      ],
      "type": "VEC3"
    },
    {
      "bufferView": 3,
      "byteOffset": 6291072,
      "componentType": 5126,
      "count": 65532,
      "max": [
        0.9999910593032837,
        0.999997079372406,
        1.0,
        1.0
      ],
      "min": [
        -0.9999947547912598,
        -0.999992311000824,
        -0.9999997019767761,
        1.0
      ],
      "type": "VEC4"
    },
    {
      "bufferView": 3,
      "byteOffset": 7339584,
      "componentType": 5126,
      "count": 65532,
      "max": [
        0.7882353067398071,
        0.7490196228027344,
        0.7450980544090271,
        1.0
      ],
      "min": [
        0.003921568859368563,
        0.0,
        0.0,
        1.0
      ],
      "type": "VEC4"
    },
    {
      "bufferView": 1,
      "byteOffset": 1572768,
      "componentType": 5126,
      "count": 65532,
      "max": [
        0.998046875,
        0.9862985014915466
      ],
      "min": [
        0.010692154988646507,
        0.009838664904236794
      ],
      "type": "VEC2"
    },
    {
      "bufferView": 0,
      "byteOffset": 3925464,
      "componentType": 5125,
      "count": 315849,
      "type": "SCALAR"
    },
    {
      "bufferView": 2,
      "byteOffset": 6291072,
      "componentType": 5126,
      "count": 33606,
      "max": [
        6.6821441650390625,
        22.674217224121094,
        9.6438627243042
      ],
      "min": [
        -9.249958038330078,
        0.014585494995117188,
        -7.446184158325195
      ],
      "type": "VEC3"
    },
    {
      "bufferView": 2,
      "byteOffset": 6694344,
      "componentType": 5126,
      "count": 33606,
      "max": [
        0.9998552203178406,
        0.999996542930603,
        0.9999993443489075
      ],
      "min": [
        -0.9999967813491821,
        -1.0,
        -0.999760627746582
      ],
      "type": "VEC3"
    },
    {
      "bufferView": 3,
      "byteOffset": 8388096,
      "componentType": 5126,
      "count": 33606,
      "max": [
        0.9999774694442749,
        0.9999963045120239,
        0.9999900460243225,
        1.0
      ],
      "min": [
        -0.9999316930770874,
        -0.9993172287940979,
        -0.9999653100967407,
        -1.0
      ],
      "type": "VEC4"
    },
    {
      "bufferView": 3,
      "byteOffset": 8925792,
      "componentType": 5126,
      "count": 33606,
      "max": [
        0.8352941274642944,
        0.8313725590705872,
        0.8352941274642944,
        1.0
      ],
      "min": [
        0.0,
        0.0,
        0.0,
        1.0
      ],
      "type": "VEC4"
    },
    {
      "bufferView": 1,
      "byteOffset": 2097024,
      "componentType": 5126,
      "count": 33606,
      "max": [
        0.9871538877487183,
        0.978386640548706
      ],
      "min": [
        0.005437821615487337,
        0.001953125
      ],
      "type": "VEC2"
    },
    {
      "bufferView": 0,
      "byteOffset": 5188860,
      "componentType": 5125,
      "count": 149433,
      "type": "SCALAR"
    }
  ],
  "asset": {
    "extras": {
      "author": "vasyl.yarmola (https://sketchfab.com/vasyl.yarmola)",
      "license": "CC-BY-4.0 (http://creativecommons.org/licenses/by/4.0/)",
      "source": "https://sketchfab.com/3d-models/eagle-10bee62c6ef14dd3a700eb4c8429f8ae",
      "title": "Eagle"
    },
    "generator": "Sketchfab-12.66.0",
    "version": "2.0"
  },
  "bufferViews": [
    {
      "buffer": 0,
      "byteLength": 5786592,
      "name": "floatBufferViews",
      "target": 34963
    },
    {
      "buffer": 0,
      "byteLength": 2365872,
      "byteOffset": 5786592,
      "byteStride": 8,
      "name": "floatBufferViews",
      "target": 34962
    },
    {
      "buffer": 0,
      "byteLength": 7097616,
      "byteOffset": 8152464,
      "byteStride": 12,
      "name": "floatBufferViews",
      "target": 34962
    },
    {
      "buffer": 0,
      "byteLength": 9463488,
      "byteOffset": 15250080,
      "byteStride": 16,
      "name": "floatBufferViews",
      "target": 34962
    }
  ],
  "buffers": [
    {
      "byteLength": 24713568,
      "uri": "scene.bin"
    }
  ],
  "images": [
    {
      "uri": "textures/Eeagle_mtl_baseColor.png"
    },
    {
      "uri": "textures/Eeagle_mtl_metallicRoughness.png"
    },
    {
      "uri": "textures/Eeagle_mtl_normal.png"
    }
  ],
  "materials": [
    {
      "doubleSided": true,
      "name": "Eeagle_mtl",
      "normalTexture": {
        "index": 2
      },
      "occlusionTexture": {
        "index": 1
      },
      "pbrMetallicRoughness": {
        "baseColorTexture": {
          "index": 0
        },
        "metallicFactor": 0.0,
        "metallicRoughnessTexture": {
          "index": 1
        },
        "roughnessFactor": 0.49971575190461426
      }
    }
  ],
  "meshes": [
    {
      "name": "Eeagle_Eeagle_mtl_0",
      "primitives": [
        {
          "attributes": {
            "COLOR_0": 3,
            "NORMAL": 1,
            "POSITION": 0,
            "TANGENT": 2,
            "TEXCOORD_0": 4
          },
          "indices": 5,
          "material": 0,
          "mode": 4
        }
      ]
    },
    {
      "name": "Eeagle_Eeagle_mtl_0",
      "primitives": [
        {
          "attributes": {
            "COLOR_0": 9,
            "NORMAL": 7,
            "POSITION": 6,
            "TANGENT": 8,
            "TEXCOORD_0": 10
          },
          "indices": 11,
          "material": 0,
          "mode": 4
        }
      ]
    },
    {
      "name": "Eeagle_Eeagle_mtl_0",
      "primitives": [
        {
          "attributes": {
            "COLOR_0": 15,
            "NORMAL": 13,
            "POSITION": 12,
            "TANGENT": 14,
            "TEXCOORD_0": 16
          },
          "indices": 17,
          "material": 0,
          "mode": 4
        }
      ]
    },
    {
      "name": "Eeagle_Eeagle_mtl_0",
      "primitives": [
        {
          "attributes": {
            "COLOR_0": 21,
            "NORMAL": 19,
            "POSITION": 18,
            "TANGENT": 20,
            "TEXCOORD_0": 22
          },
          "indices": 23,
          "material": 0,
          "mode": 4
        }
      ]
    },
    {
      "name": "Eeagle_Eeagle_mtl_0",
      "primitives": [
        {
          "attributes": {
            "COLOR_0": 27,
            "NORMAL": 25,
            "POSITION": 24,
            "TANGENT": 26,
            "TEXCOORD_0": 28
          },
          "indices": 29,
          "material": 0,
          "mode": 4
        }
      ]
    }
  ],
  "nodes": [
    {
      "children": [
        1
      ],
      "matrix": [
        0.03999999910593033,
        0.0,
        0.0,
        0.0,
        0.0,
        8.881783998477905e-18,
        -0.03999999910593033,
        0.0,
        0.0,
        0.03999999910593033,
        8.881783998477905e-18,
        0.0,
        0.0,
        0.0,
        0.0,
        1.0
      ],
      "name": "Sketchfab_model"
    },
    {
      "children": [
        2
      ],
      "matrix": [
        1.0,
        0.0,
        0.0,
        0.0,
        0.0,
        0.0,
        1.0,
        0.0,
        0.0,
        -1.0,
        0.0,
        0.0,
        0.0,
        0.0,
        0.0,
        1.0
      ],
      "name": "Eeagle.fbx"
    },
    {
      "children": [
        3
      ],
      "name": "RootNode"
    },
    {
      "children": [
        4,
        5,
        6,
        7,
        8
      ],
      "name": "Eeagle"
    },
    {
      "mesh": 0,
      "name": "Eeagle_Eeagle_mtl_0"
    },
    {
      "mesh": 1,
      "name": "Eeagle_Eeagle_mtl_0"
    },
    {
      "mesh": 2,
      "name": "Eeagle_Eeagle_mtl_0"
    },
    {
      "mesh": 3,
      "name": "Eeagle_Eeagle_mtl_0"
    },
    {
      "mesh": 4,
      "name": "Eeagle_Eeagle_mtl_0"
    }
  ],
  "samplers": [
    {
      "magFilter": 9729,
      "minFilter": 9987,
      "wrapS": 10497,
      "wrapT": 10497
    }
  ],
  "scene": 0,
  "scenes": [
    {
      "name": "Sketchfab_Scene",
      "nodes": [
        0
      ]
    }
  ],
  "textures": [
    {
      "sampler": 0,
      "source": 0
    },
    {
      "sampler": 0,
      "source": 1
    },
    {
      "sampler": 0,
      "source": 2
    }
  ]
}
