{
  "accessors": [
    {
      "bufferView": 2,
      "componentType": 5126,
      "count": 65532,
      "max": [
        103.45523071289063,
        115.70153045654297,
        88.22650146484375
      ],
      "min": [
        -95.2173843383789,
        -117.4378433227539,
        -40.27129364013672
      ],
      "type": "VEC3"
    },
    {
      "bufferView": 2,
      "byteOffset": 786384,
      "componentType": 5126,
      "count": 65532,
      "max": [
        0.9999819993972778,
        1.0,
        0.9999833106994629
      ],
      "min": [
        -0.9999995231628418,
        -0.9999998807907104,
        -0.9999581575393677
      ],
      "type": "VEC3"
    },
    {
      "bufferView": 1,
      "componentType": 5126,
      "count": 65532,
      "max": [
        0.9980000257492065,
        0.9979699850082397
      ],
      "min": [
        0.0020000000949949026,
        0.0020000000949949026
      ],
      "type": "VEC2"
    },
    {
      "bufferView": 0,
      "componentType": 5125,
      "count": 344223,
      "type": "SCALAR"
    },
    {
      "bufferView": 2,
      "byteOffset": 1572768,
      "componentType": 5126,
      "count": 42925,
      "max": [
        84.08663177490234,
        115.71014404296875,
        87.82505798339844
      ],
      "min": [
        -104.41907501220703,
        -116.12825012207031,
        -40.27129364013672
      ],
      "type": "VEC3"
    },
    {
      "bufferView": 2,
      "byteOffset": 2087868,
      "componentType": 5126,
      "count": 42925,
      "max": [
        0.9999167919158936,
        1.0,
        0.9999582767486572
      ],
      "min": [
        -0.9999957084655762,
        -0.99998939037323,
        -0.9998565316200256
      ],
      "type": "VEC3"
    },
    {
      "bufferView": 1,
      "byteOffset": 524256,
      "componentType": 5126,
      "count": 42925,
      "max": [
        0.9961699843406677,
        0.996429979801178
      ],
      "min": [
        0.006370000075548887,
        0.008729999884963036
      ],
      "type": "VEC2"
    },
    {
      "bufferView": 0,
      "byteOffset": 1376892,
      "componentType": 5125,
      "count": 184383,
      "type": "SCALAR"
    }
  ],
  "asset": {
    "extras": {
      "author": "Virtual Museums of Małopolska (https://sketchfab.com/WirtualneMuzeaMalopolski)",
      "license": "CC0-1.0 (http://creativecommons.org/publicdomain/zero/1.0/)",
      "source": "https://sketchfab.com/3d-models/vessel-decorated-with-garlands-1ba7ae93249946779e0a83478fef853b",
      "title": "Vessel decorated with garlands"
    },
    "generator": "Sketchfab-12.68.0",
    "version": "2.0"
  },
  "bufferViews": [
    {
      "buffer": 0,
      "byteLength": 2114424,
      "name": "floatBufferViews",
      "target": 34963
    },
    {
      "buffer": 0,
      "byteLength": 867656,
      "byteOffset": 2114424,
      "byteStride": 8,
      "name": "floatBufferViews",
      "target": 34962
    },
    {
      "buffer": 0,
      "byteLength": 2602968,
      "byteOffset": 2982080,
      "byteStride": 12,
      "name": "floatBufferViews",
      "target": 34962
    }
  ],
  "buffers": [
    {
      "byteLength": 5585048,
      "uri": "scene.bin"
    }
  ],
  "images": [
    {
      "uri": "textures/defaultMat_baseColor.jpeg"
    },
    {
      "uri": "textures/defaultMat_metallicRoughness.png"
    }
  ],
  "materials": [
    {
      "doubleSided": true,
      "name": "defaultMat",
      "pbrMetallicRoughness": {
        "baseColorTexture": {
          "index": 0
        },
        "metallicFactor": 0.3858612804878049,
        "metallicRoughnessTexture": {
          "index": 1
        },
        "roughnessFactor": 0.22667645574545964
      }
    }
  ],
  "meshes": [
    {
      "name": "Object_0",
      "primitives": [
        {
          "attributes": {
            "NORMAL": 1,
            "POSITION": 0,
            "TEXCOORD_0": 2
          },
          "indices": 3,
          "material": 0,
          "mode": 4
        }
      ]
    },
    {
      "name": "Object_1",
      "primitives": [
        {
          "attributes": {
            "NORMAL": 5,
            "POSITION": 4,
            "TEXCOORD_0": 6
          },
          "indices": 7,
          "material": 0,
          "mode": 4
        }
      ]
    }
  ],
  "nodes": [
    {
      "children": [
        1
      ],
      "matrix": [
        0.009868960827589035,
        0.0,
        0.0,
        0.0,
        0.0,
        -0.009868957886409513,
        7.842710917385142e-06,
        0.0,
        0.0,
        -7.842710917385142e-06,
        -0.009868957886409513,
        0.0,
        0.0,
        23.132637023925774,
        24.842250823974613,
        1.0
      ],
      "name": "Sketchfab_model"
    },
    {
      "children": [
        2,
        3
      ],
      "name": "Fzrs_19_smooth_FINAL.OBJ.cleaner.materialmerger.gles"
    },
    {
      "mesh": 0,
      "name": "Object_2"
    },
    {
      "mesh": 1,
      "name": "Object_3"
    }
  ],
  "samplers": [
    {
      "magFilter": 9729,
      "minFilter": 9987,
      "wrapS": 10497,
      "wrapT": 10497
    }
  ],
  "scene": 0,
  "scenes": [
    {
      "name": "Sketchfab_Scene",
      "nodes": [
        0
      ]
    }
  ],
  "textures": [
    {
      "sampler": 0,
      "source": 0
    },
    {
      "sampler": 0,
      "source": 1
    }
  ]
}
