{
  "accessors": [
    {
      "bufferView": 2,
      "componentType": 5126,
      "count": 53477,
      "max": [
        1.2819859981536865,
        -5.631007194519043,
        7.6789140701293945
      ],
      "min": [
        -3.479780912399292,
        -11.084293365478516,
        2.4027490615844727
      ],
      "type": "VEC3"
    },
    {
      "bufferView": 2,
      "byteOffset": 641724,
      "componentType": 5126,
      "count": 53477,
      "max": [
        0.9999980926513672,
        0.9996191263198853,
        0.9999490976333618
      ],
      "min": [
        -0.9999906420707703,
        -0.9999940991401672,
        -0.9998021125793457
      ],
      "type": "VEC3"
    },
    {
      "bufferView": 1,
      "componentType": 5126,
      "count": 53477,
      "max": [
        0.9964799880981445,
        0.996474027633667
      ],
      "min": [
        0.0032939999364316463,
        0.0031419999431818724
      ],
      "type": "VEC2"
    },
    {
      "bufferView": 0,
      "componentType": 5125,
      "count": 299862,
      "type": "SCALAR"
    }
  ],
  "asset": {
    "extras": {
      "author": "Minneapolis Institute of Art (https://sketchfab.com/artsmia)",
      "license": "CC0-1.0 (http://creativecommons.org/publicdomain/zero/1.0/)",
      "source": "https://sketchfab.com/3d-models/he-wine-vessel-10th-11th-c-bce-9744442e4860487b9b84cfa59f215d42",
      "title": "'He' wine vessel, 10th-11th C BCE"
    },
    "generator": "Sketchfab-12.64.0",
    "version": "2.0"
  },
  "bufferViews": [
    {
      "buffer": 0,
      "byteLength": 1199448,
      "name": "floatBufferViews",
      "target": 34963
    },
    {
      "buffer": 0,
      "byteLength": 427816,
      "byteOffset": 1199448,
      "byteStride": 8,
      "name": "floatBufferViews",
      "target": 34962
    },
    {
      "buffer": 0,
      "byteLength": 1283448,
      "byteOffset": 1627264,
      "byteStride": 12,
      "name": "floatBufferViews",
      "target": 34962
    }
  ],
  "buffers": [
    {
      "byteLength": 2910712,
      "uri": "scene.bin"
    }
  ],
  "images": [
    {
      "uri": "textures/150506_mia337_000818_805_100Kfaces_ZBrush3_baseColor.jpeg"
    }
  ],
  "materials": [
    {
      "name": "150506_mia337_000818_805_100Kfaces_ZBrush3",
      "pbrMetallicRoughness": {
        "baseColorTexture": {
          "index": 0
        },
        "metallicFactor": 0.10802087783813477,
        "roughnessFactor": 0.4794791221618653
      }
    }
  ],
  "meshes": [
    {
      "name": "Object_0",
      "primitives": [
        {
          "attributes": {
            "NORMAL": 1,
            "POSITION": 0,
            "TEXCOORD_0": 2
          },
          "indices": 3,
          "material": 0,
          "mode": 4
        }
      ]
    }
  ],
  "nodes": [
    {
      "children": [
        1
      ],
      "matrix": [
        5.7949931904243725e-05,
        0.001265563433057367,
        0.05384871849098416,
        0.0,
        -0.036397079406381705,
        0.03969563376383767,
        -0.0008937656395558139,
        0.0,
        -0.03970565059200459,
        -0.03638604805331069,
        0.0008978819298806605,
        0.0,
        -3.029346227645874,
        14.631159782409666,
        9.233544349670414,
        1.0
      ],
      "name": "Sketchfab_model"
    },
    {
      "children": [
        2
      ],
      "name": "150506_mia337_000818_805_100Kfaces_ZBrush3.OBJ.cleaner.materialmerger.gles"
    },
    {
      "mesh": 0,
      "name": "Object_2"
    }
  ],
  "samplers": [
    {
      "magFilter": 9729,
      "minFilter": 9987,
      "wrapS": 10497,
      "wrapT": 10497
    }
  ],
  "scene": 0,
  "scenes": [
    {
      "name": "Sketchfab_Scene",
      "nodes": [
        0
      ]
    }
  ],
  "textures": [
    {
      "sampler": 0,
      "source": 0
    }
  ]
}
