{
  "accessors": [
    {
      "bufferView": 2,
      "componentType": 5126,
      "count": 4,
      "max": [
        0.5,
        0.5,
        3.561636263693657e-10
      ],
      "min": [
        -0.49185192584991455,
        -0.7586512565612793,
        0.0
      ],
      "type": "VEC3"
    },
    {
      "bufferView": 2,
      "byteOffset": 48,
      "componentType": 5126,
      "count": 4,
      "max": [
        -3.5908950812846285e-10,
        0.0,
        -1.0
      ],
      "min": [
        -3.5908950812846285e-10,
        0.0,
        -1.0
      ],
      "type": "VEC3"
    },
    {
      "bufferView": 3,
      "componentType": 5126,
      "count": 4,
      "max": [
        1.0,
        0.0,
        -3.5908950812846285e-10,
        -1.0
      ],
      "min": [
        1.0,
        0.0,
        -3.5908950812846285e-10,
        -1.0
      ],
      "type": "VEC4"
    },
    {
      "bufferView": 1,
      "componentType": 5126,
      "count": 4,
      "max": [
        0.03782317414879799,
        0.9929034113883972
      ],
      "min": [
        0.012759286910295486,
        0.9678395390510559
      ],
      "type": "VEC2"
    },
    {
      "bufferView": 0,
      "componentType": 5125,
      "count": 6,
      "type": "SCALAR"
    },
    {
      "bufferView": 2,
      "byteOffset": 96,
      "componentType": 5126,
      "count": 96,
      "max": [
        0.06027921661734581,
        -2.3077023029327393,
        1.4939961433410645
      ],
      "min": [
        -0.03972124308347702,
        -3.499554395675659,
        0.03534502163529396
      ],
      "type": "VEC3"
    },
    {
      "bufferView": 2,
      "byteOffset": 1248,
      "componentType": 5126,
      "count": 96,
      "max": [
        0.9760646224021912,
        0.9576374292373657,
        0.9576374888420105
      ],
      "min": [
        -0.8320502638816833,
        -0.9576374888420105,
        -0.9576375484466553
      ],
      "type": "VEC3"
    },
    {
      "bufferView": 3,
      "byteOffset": 64,
      "componentType": 5126,
      "count": 96,
      "max": [
        0.8944276571273804,
        0.9760630130767822,
        0.9760645031929016,
        1.0
      ],
      "min": [
        -0.9576374888420105,
        -0.9760631322860718,
        -0.9760644435882568,
        1.0
      ],
      "type": "VEC4"
    },
    {
      "bufferView": 1,
      "byteOffset": 32,
      "componentType": 5126,
      "count": 96,
      "max": [
        0.8425754904747009,
        0.9505480527877808
      ],
      "min": [
        0.6055104732513428,
        0.027369828894734383
      ],
      "type": "VEC2"
    },
    {
      "bufferView": 0,
      "byteOffset": 24,
      "componentType": 5125,
      "count": 264,
      "type": "SCALAR"
    },
    {
      "bufferView": 2,
      "byteOffset": 2400,
      "componentType": 5126,
      "count": 4,
      "max": [
        -0.038201093673706055,
        -2.4077022075653076,
        1.393995761871338
      ],
      "min": [
        -0.038201093673706055,
        -3.3995540142059326,
        0.135345458984375
      ],
      "type": "VEC3"
    },
    {
      "bufferView": 2,
      "byteOffset": 2448,
      "componentType": 5126,
      "count": 4,
      "max": [
        1.0,
        0.0,
        0.0
      ],
      "min": [
        1.0,
        0.0,
        0.0
      ],
      "type": "VEC3"
    },
    {
      "bufferView": 3,
      "byteOffset": 1600,
      "componentType": 5126,
      "count": 4,
      "max": [
        0.0,
        -1.8788053068874433e-07,
        1.0,
        1.0
      ],
      "min": [
        0.0,
        -1.8942402846278128e-07,
        1.0,
        1.0
      ],
      "type": "VEC4"
    },
    {
      "bufferView": 1,
      "byteOffset": 800,
      "componentType": 5126,
      "count": 4,
      "max": [
        1.000000238418579,
        1.0000001192092896
      ],
      "min": [
        -1.1920928955078125e-07,
        -1.1920928955078125e-07
      ],
      "type": "VEC2"
    },
    {
      "bufferView": 0,
      "byteOffset": 1080,
      "componentType": 5125,
      "count": 6,
      "type": "SCALAR"
    },
    {
      "bufferView": 2,
      "byteOffset": 2496,
      "componentType": 5126,
      "count": 1089,
      "max": [
        0.017427872866392136,
        -2.407708168029785,
        1.3928484916687012
      ],
      "min": [
        -0.0574650764465332,
        -3.39955997467041,
        0.13419830799102783
      ],
      "type": "VEC3"
    },
    {
      "bufferView": 2,
      "byteOffset": 15564,
      "componentType": 5126,
      "count": 1089,
      "max": [
        0.9999942779541016,
        0.5122988224029541,
        0.43083688616752625
      ],
      "min": [
        0.8587955236434937,
        -0.468051016330719,
        -0.4393291771411896
      ],
      "type": "VEC3"
    },
    {
      "bufferView": 1,
      "byteOffset": 832,
      "componentType": 5126,
      "count": 1089,
      "max": [
        1.000000238418579,
        1.0000001192092896
      ],
      "min": [
        -1.428872877795584e-07,
        -1.1920928955078125e-07
      ],
      "type": "VEC2"
    },
    {
      "bufferView": 0,
      "byteOffset": 1104,
      "componentType": 5125,
      "count": 6144,
      "type": "SCALAR"
    }
  ],
  "asset": {
    "extras": {
      "author": "SebastianSosnowski (https://sketchfab.com/SebastianSosnowski)",
      "license": "CC-BY-4.0 (http://creativecommons.org/licenses/by/4.0/)",
      "source": "https://sketchfab.com/3d-models/painting-by-zdzislaw-beksinski-2-da5bab909570476b951be08d6a9eecdc",
      "title": "Painting by Zdzislaw Beksinski (2)"
    },
    "generator": "Sketchfab-12.68.0",
    "version": "2.0"
  },
  "bufferViews": [
    {
      "buffer": 0,
      "byteLength": 25680,
      "name": "floatBufferViews",
      "target": 34963
    },
    {
      "buffer": 0,
      "byteLength": 9544,
      "byteOffset": 25680,
      "byteStride": 8,
      "name": "floatBufferViews",
      "target": 34962
    },
    {
      "buffer": 0,
      "byteLength": 28632,
      "byteOffset": 35224,
      "byteStride": 12,
      "name": "floatBufferViews",
      "target": 34962
    },
    {
      "buffer": 0,
      "byteLength": 1664,
      "byteOffset": 63856,
      "byteStride": 16,
      "name": "floatBufferViews",
      "target": 34962
    }
  ],
  "buffers": [
    {
      "byteLength": 65520,
      "uri": "scene.bin"
    }
  ],
  "extensionsUsed": [
    "KHR_materials_transmission"
  ],
  "images": [
    {
      "uri": "textures/RAMY_baseColor.jpeg"
    },
    {
      "uri": "textures/RAMY_metallicRoughness.png"
    },
    {
      "uri": "textures/RAMY_normal.png"
    },
    {
      "uri": "textures/OBRAZ_baseColor.jpeg"
    },
    {
      "uri": "textures/OBRAZ_normal.png"
    }
  ],
  "materials": [
    {
      "name": "RAMY",
      "normalTexture": {
        "index": 2
      },
      "occlusionTexture": {
        "index": 1
      },
      "pbrMetallicRoughness": {
        "baseColorTexture": {
          "index": 0
        },
        "metallicRoughnessTexture": {
          "index": 1
        }
      }
    },
    {
      "name": "OBRAZ",
      "normalTexture": {
        "index": 4
      },
      "pbrMetallicRoughness": {
        "baseColorTexture": {
          "index": 3
        },
        "metallicFactor": 0.0,
        "roughnessFactor": 0.4529344512
      }
    },
    {
      "alphaMode": "BLEND",
      "extensions": {
        "KHR_materials_transmission": {
          "transmissionFactor": 1.0
        }
      },
      "name": "Material_89",
      "pbrMetallicRoughness": {
        "baseColorFactor": [
          0.0,
          0.0,
          0.0,
          0.25
        ],
        "metallicFactor": 0.0
      }
    }
  ],
  "meshes": [
    {
      "name": "TylObrazu_RAMY_0",
      "primitives": [
        {
          "attributes": {
            "NORMAL": 1,
            "POSITION": 0,
            "TANGENT": 2,
            "TEXCOORD_0": 3
          },
          "indices": 4,
          "material": 0,
          "mode": 4
        }
      ]
    },
    {
      "name": "Object003_RAMY_0",
      "primitives": [
        {
          "attributes": {
            "NORMAL": 6,
            "POSITION": 5,
            "TANGENT": 7,
            "TEXCOORD_0": 8
          },
          "indices": 9,
          "material": 0,
          "mode": 4
        }
      ]
    },
    {
      "name": "Object003_OBRAZ_0",
      "primitives": [
        {
          "attributes": {
            "NORMAL": 11,
            "POSITION": 10,
            "TANGENT": 12,
            "TEXCOORD_0": 13
          },
          "indices": 14,
          "material": 1,
          "mode": 4
        }
      ]
    },
    {
      "name": "Object004_Material #89_0",
      "primitives": [
        {
          "attributes": {
            "NORMAL": 16,
            "POSITION": 15,
            "TEXCOORD_0": 17
          },
          "indices": 18,
          "material": 2,
          "mode": 4
        }
      ]
    }
  ],
  "nodes": [
    {
      "children": [
        1
      ],
      "matrix": [
        2.3821582794189453,
        0.0,
        0.0,
        0.0,
        0.0,
        5.289453940224721e-16,
        -2.3821582794189453,
        0.0,
        0.0,
        2.3821582794189453,
        5.289453940224721e-16,
        0.0,
        0.0,
        0.0,
        0.0,
        1.0
      ],
      "name": "Sketchfab_model"
    },
    {
      "children": [
        2
      ],
      "matrix": [
        1.0,
        0.0,
        0.0,
        0.0,
        0.0,
        0.0,
        1.0,
        0.0,
        0.0,
        -1.0,
        0.0,
        0.0,
        0.0,
        0.0,
        0.0,
        1.0
      ],
      "name": "e34675b3b4a846d58780087d81752ed6.fbx"
    },
    {
      "children": [
        3,
        5,
        9
      ],
      "name": "RootNode"
    },
    {
      "children": [
        4
      ],
      "matrix": [
        4.371138828673793e-08,
        -0.9999999999999991,
        0.0,
        0.0,
        0.0,
        0.0,
        -1.0,
        0.0,
        0.9999999999999991,
        4.371138828673793e-08,
        0.0,
        0.0,
        5.960464477539063e-07,
        0.004073739051818848,
        -0.1293250322341919,
        1.0
      ],
      "name": "TylObrazu"
    },
    {
      "mesh": 0,
      "name": "TylObrazu_RAMY_0"
    },
    {
      "children": [
        6
      ],
      "matrix": [
        1.0,
        0.0,
        0.0,
        0.0,
        0.0,
        2.220446049250313e-16,
        -1.0,
        0.0,
        0.0,
        1.0,
        2.220446049250313e-16,
        0.0,
        0.0,
        0.0,
        0.0,
        1.0
      ],
      "name": "Object003"
    },
    {
      "children": [
        7,
        8
      ],
      "matrix": [
        1.0,
        0.0,
        0.0,
        0.0,
        0.0,
        6.123233995736766e-17,
        -1.0,
        0.0,
        -0.0,
        1.0,
        6.123233995736766e-17,
        0.0,
        0.039721205830574036,
        -0.7646708488464355,
        -2.903628349304199,
        1.0
      ],
      "name": "Object_6"
    },
    {
      "mesh": 1,
      "name": "Object003_RAMY_0"
    },
    {
      "mesh": 2,
      "name": "Object003_OBRAZ_0"
    },
    {
      "children": [
        10
      ],
      "matrix": [
        1.0,
        0.0,
        0.0,
        0.0,
        0.0,
        2.220446049250313e-16,
        -1.0,
        0.0,
        0.0,
        1.0,
        2.220446049250313e-16,
        0.0,
        0.027865853160619736,
        0.0,
        0.0,
        1.0
      ],
      "name": "Object004"
    },
    {
      "children": [
        11
      ],
      "matrix": [
        1.0,
        0.0,
        0.0,
        0.0,
        0.0,
        6.123233995736766e-17,
        -1.0,
        0.0,
        -0.0,
        1.0,
        6.123233995736766e-17,
        0.0,
        0.039721205830574036,
        -0.7646708488464355,
        -2.903628349304199,
        1.0
      ],
      "name": "Object_10"
    },
    {
      "mesh": 3,
      "name": "Object004_Material #89_0"
    }
  ],
  "samplers": [
    {
      "magFilter": 9729,
      "minFilter": 9987,
      "wrapS": 10497,
      "wrapT": 10497
    }
  ],
  "scene": 0,
  "scenes": [
    {
      "name": "Sketchfab_Scene",
      "nodes": [
        0
      ]
    }
  ],
  "textures": [
    {
      "sampler": 0,
      "source": 0
    },
    {
      "sampler": 0,
      "source": 1
    },
    {
      "sampler": 0,
      "source": 2
    },
    {
      "sampler": 0,
      "source": 3
    },
    {
      "sampler": 0,
      "source": 4
    }
  ]
}
